<svg height="512pt" viewBox="0 -54 512 512" width="512pt" xmlns="http://www.w3.org/2000/svg"><path d="m449.519531 192.335938-.316406-.183594-42.703125-102.484375-43.832031-9.667969-49 9.667969-4.335938 54.332031 4.335938 48.335938 59.664062 5zm0 0" fill="#32393f"/><path d="m394 59.667969h-80.332031l-4.335938 15 4.335938 15h92.832031zm0 0" fill="#e2e2e7"/><path d="m449.519531 192.335938h-135.851562l-16.964844 66.75 16.964844 102.582031h198.332031v-105.667969l-10-15 10-15zm0 0" fill="#d3d3d8"/><path d="m313.667969 226-15 15 15 15h198.332031v-30zm0 0" fill="#f04000"/><path d="m440.828125 344.921875c0 24.527344-19.886719 44.414063-44.414063 44.414063-24.527343 0-44.414062-19.886719-44.414062-44.414063 0-24.53125 19.886719-44.414063 44.414062-44.414063 24.527344 0 44.414063 19.882813 44.414063 44.414063zm0 0" fill="#e2e2e7"/><path d="m396.414062 404.335938c-32.761718 0-59.414062-26.65625-59.414062-59.414063 0-32.761719 26.652344-59.414063 59.414062-59.414063 32.761719 0 59.414063 26.652344 59.414063 59.414063 0 32.757813-26.652344 59.414063-59.414063 59.414063zm0-88.828126c-16.21875 0-29.414062 13.191407-29.414062 29.414063 0 16.21875 13.195312 29.414063 29.414062 29.414063s29.414063-13.195313 29.414063-29.414063c0-16.222656-13.195313-29.414063-29.414063-29.414063zm0 0" fill="#32393f"/><path d="m233.375 69.335938v-34.625c0-19.140626-15.570312-34.710938-34.707031-34.710938-19.140625 0-34.707031 15.570312-34.707031 34.710938v34.621093h69.414062zm0 0" fill="#ff6200"/><path d="m0 256v105.667969h313.667969v-111zm0 0" fill="#ececf1"/><path d="m0 226 313.667969 10v-176.332031h-313.667969zm0 0" fill="#ececf1"/><path d="m160 344.921875c0 24.527344-19.886719 44.414063-44.414062 44.414063-24.527344 0-44.414063-19.886719-44.414063-44.414063 0-24.53125 19.886719-44.414063 44.414063-44.414063 24.527343 0 44.414062 19.882813 44.414062 44.414063zm0 0" fill="#e8f0f3"/><path d="m115.585938 404.335938c-32.761719 0-59.414063-26.65625-59.414063-59.414063 0-32.761719 26.652344-59.414063 59.414063-59.414063 32.761718 0 59.414062 26.652344 59.414062 59.414063 0 32.757813-26.652344 59.414063-59.414062 59.414063zm0-88.828126c-16.21875 0-29.414063 13.191407-29.414063 29.414063 0 16.21875 13.195313 29.414063 29.414063 29.414063s29.414062-13.195313 29.414062-29.414063c0-16.222656-13.195312-29.414063-29.414062-29.414063zm0 0" fill="#474f54"/><path d="m149.332031 127.835938h-22.332031v-22.335938h-30v22.335938h-22.335938v30h22.335938v22.332031h30v-22.332031h22.332031zm0 0" fill="#f04000"/><path d="m0 226h313.667969v30h-313.667969zm0 0" fill="#ff6200"/></svg>